<?xml version="1.0" encoding="utf-8"?>
<!-- Generator: Adobe Illustrator 22.0.1, SVG Export Plug-In . SVG Version: 6.00 Build 0)  -->
<svg version="1.1" id="Capa_1" xmlns="http://www.w3.org/2000/svg" xmlns:xlink="http://www.w3.org/1999/xlink" x="0px" y="0px"
	 viewBox="0 0 512 512" style="enable-background:new 0 0 512 512;" xml:space="preserve">
<style type="text/css">
	.st0{fill:#2A579C;}
</style>
<g>
	<path class="st0" d="M507.6,163c5.9-5.9,5.9-15.4,0-21.2l-126.1-126c-5.9-5.9-15.4-5.9-21.2,0l-39.4,39.4l-55.5,17l-54.6-17.8
		l-39.9-39.9c-5.9-5.9-15.4-5.9-21.2,0L4.4,159.7c-5.9,5.9-5.9,15.4,0,21.2L44,220.5l14.5,55.3c-5.4,3.8-7.3,6.5-16.8,15.8
		c-27.6,27.6-9.1,74.6,29.3,76.6c1.2,22.9,19.5,41.2,42.4,42.4c1.2,22.9,19.5,41.2,42.4,42.4c0.6,11.1,5.2,21.4,13.1,29.4
		c17.5,17.5,46.1,17.5,63.6,0l11.3-11.3c0.2-0.2,0.4-0.5,0.6-0.7l18.3,18.3c17.5,17.5,46.1,17.5,63.6,0c7.2-7.2,11.7-16.4,12.8-26.4
		c0.2,0,0.4,0,0.6,0c11.5,0,23-4.4,31.8-13.1c7-7,11.5-16,12.8-25.7c0.4,0,0.9,0,1.3,0c11.5,0,23-4.4,31.8-13.1
		c6.9-6.9,11.3-15.7,12.7-25.2c0.7,0,1.5,0.1,2.2,0.1c11.5,0,23-4.4,31.8-13.1c17.6-17.6,17.6-46,0-63.6l-41.8-41.8l44-62.6
		L507.6,163z M57.4,191.5l-21.2-21.2l124-124l21.2,21.2L57.4,191.5z M84,333.9c-5.8,5.8-15.3,5.8-21.2,0c-5.8-5.8-5.8-15.3,0-21.1
		l10.6-10.6c9.4-9.4,25.5-2.7,25.5,10.6C99,322.2,91.5,325.3,84,333.9z M126.5,376.4c-5.8,5.8-15.3,5.8-21.2,0
		c-5.8-5.8-5.8-15.3,0-21.1l42.4-42.4c5.8-5.8,15.3-5.8,21.2,0c5.8,5.8,5.8,15.3,0,21.1L126.5,376.4z M168.9,418.8
		c-5.8,5.8-15.3,5.8-21.2,0c-5.8-5.8-5.8-15.3,0-21.1l31.8-31.8c5.8-5.8,15.3-5.8,21.2,0c5.8,5.8,5.8,15.3,0,21.1h0L168.9,418.8z
		 M222.6,449.9l-11.3,11.3c-5.8,5.8-15.3,5.8-21.2,0c-5.8-5.8-5.8-15.3,0-21.1l11.3-11.3c5.8-5.8,15.3-5.8,21.2,0
		C228.5,434.6,228.5,444.1,222.6,449.9L222.6,449.9z M443,329.7c5.9,5.8,5.9,15.3,0,21.2c-5.8,5.8-15.3,5.8-21.2,0l-35.3-35.3
		c-6.8-6.8-16.3-6.3-22-0.6c-5.9,5.9-5.9,15.4,0,21.2l31.7,31.7c5.8,5.8,5.9,15.3,0,21.2c-5.8,5.8-15.3,5.8-21.2,0
		c-11.3-11.3-9.4-9.4-31.7-31.7c-5.9-5.9-15.4-5.9-21.2,0c0,0,0,0,0,0c0,0,0,0,0,0c-5.9,5.9-5.9,15.4,0,21.2l28.6,28.6
		c5.5,5.9,5.3,15.1-0.4,20.7c-5.8,5.8-15.3,5.8-21.2,0L301,399.8c-5.9-5.9-15.4-5.9-21.2,0c-5.9,5.9-5.9,15.4,0,21.2l0.7,0.7
		c0,0,0,0,0,0l24.7,24.7c5.8,5.8,5.9,15.3,0,21.2c-5.8,5.8-15.3,5.8-21.2,0l-27-27c0-0.4,0-0.8,0-1.2c0-12-4.7-23.3-13.2-31.8
		c-4.2-4.2-9.1-7.4-14.3-9.6c13.6-24.8,1-56.9-27.4-64.8c3.2-14.6-0.9-30.3-12.1-41.5c-17.5-17.5-46.1-17.5-63.6,0l-1.8,1.8
		c-6.7-14-20.6-24.2-37.2-25.5l-13.3-50.7L206.8,84.6l30.8,10c-48,48.1-56.3,56.4-57.5,57.5c0,0,0,0,0,0c-0.1,0.1-0.1,0.1-0.1,0.1
		c0,0,0,0,0,0c0,0,0,0,0,0c-17.8,17.8-17.8,46.5,0,64.3c17.7,17.7,46.6,17.7,64.3,0l42.8-42.8L443,329.7z M400.9,245.2L297.7,142
		c-5.9-5.9-15.4-5.9-21.2,0L223,195.4c-6,6-15.8,6-21.9,0c-6-6-6-15.8,0-21.9c0,0,0,0,0,0c0,0,0,0,0.1-0.1c0,0,0,0,0,0c0,0,0,0,0,0
		c0,0,0,0,0,0c0,0,0,0,0,0c0,0,0,0,0,0c1-1,9.6-9.7,72.1-72.4l51.3-15.7l110.8,110.7L400.9,245.2z M350.1,68.4l20.9-20.9
		l104.8,104.8l-20.9,20.9L350.1,68.4z"/>
	<path class="st0" d="M201.2,173.5C201.2,173.5,201.2,173.5,201.2,173.5C201.1,173.6,201.1,173.6,201.2,173.5
		C201.2,173.6,201.2,173.5,201.2,173.5z"/>
	<path class="st0" d="M201.2,173.5L201.2,173.5L201.2,173.5L201.2,173.5z"/>
	<path class="st0" d="M180,152.3L180,152.3C180,152.3,180,152.3,180,152.3z"/>
</g>
</svg>
