<?xml version="1.0" encoding="utf-8"?>
<!-- Generator: Adobe Illustrator 22.0.1, SVG Export Plug-In . SVG Version: 6.00 Build 0)  -->
<svg version="1.1" id="Capa_1" xmlns="http://www.w3.org/2000/svg" xmlns:xlink="http://www.w3.org/1999/xlink" x="0px" y="0px"
	 viewBox="0 0 512 512" style="enable-background:new 0 0 512 512;" xml:space="preserve">
<style type="text/css">
	.st0{fill:#2A579C;}
</style>
<g>
	<path class="st0" d="M461,205C461,92,369,0,256,0S51,92,51,205c0,97.6,68.5,179.4,160,200v77h-15c-8.3,0-15,6.7-15,15s6.7,15,15,15
		h120c8.3,0,15-6.7,15-15s-6.7-15-15-15h-15v-77C392.5,384.4,461,302.6,461,205z M81,205c0-96.5,78.5-175,175-175s175,78.5,175,175
		s-78.5,175-175,175S81,301.5,81,205z M271,482h-30v-72.6c5,0.4,10,0.6,15,0.6c5,0,10-0.2,15-0.6V482z"/>
	<path class="st0" d="M174.7,144.9c2.9,2.9,6.8,4.4,10.6,4.4s7.7-1.5,10.6-4.4c5.9-5.9,5.9-15.4,0-21.2l-9.9-9.9
		c15.7-12,34.5-20.1,55-22.8v14c0,8.3,6.7,15,15,15c8.3,0,15-6.7,15-15V91c20.5,2.7,39.3,10.8,55,22.8l-9.9,9.9
		c-5.9,5.9-5.9,15.4,0,21.2c2.9,2.9,6.8,4.4,10.6,4.4s7.7-1.5,10.6-4.4l9.9-9.9c12,15.7,20.1,34.5,22.8,55h-14c-8.3,0-15,6.7-15,15
		s6.7,15,15,15h14c-2.6,20.1-10.4,38.9-22.8,55l-9.9-9.9c-5.9-5.9-15.4-5.9-21.2,0s-5.9,15.4,0,21.2l21.2,21.2
		c2.9,2.9,6.8,4.4,10.6,4.4s7.7-1.5,10.6-4.4c0.4-0.4,0.7-0.8,1-1.2C386.3,279.1,401,243.2,401,205c0-39.4-15.8-75.2-41.4-101.3
		c-0.3-0.4-1.8-1.9-2.3-2.3C331.2,75.8,295.4,60,256,60s-75.2,15.8-101.3,41.4c-0.4,0.3-1.9,1.8-2.3,2.3
		C126.8,129.8,111,165.6,111,205c0,38.2,14.7,74.1,41.4,101.4c0.3,0.4,0.7,0.8,1,1.2c2.9,2.9,6.8,4.4,10.6,4.4s7.7-1.5,10.6-4.4
		l21.2-21.2c5.9-5.9,5.9-15.4,0-21.2c-5.9-5.9-15.4-5.9-21.2,0l-9.9,9.9c-12.4-16.1-20.2-34.9-22.8-55h14c8.3,0,15-6.7,15-15
		s-6.7-15-15-15h-14c2.7-20.5,10.8-39.3,22.8-55L174.7,144.9z"/>
	<circle class="st0" cx="226" cy="325" r="15"/>
	<circle class="st0" cx="286" cy="325" r="15"/>
	<path class="st0" d="M266.6,215.6l35.4-35.4c5.9-5.9,5.9-15.4,0-21.2c-5.9-5.9-15.4-5.9-21.2,0l-35.4,35.4
		c-5.9,5.9-5.9,15.4,0,21.2c2.9,2.9,6.8,4.4,10.6,4.4C259.8,220,263.7,218.5,266.6,215.6z"/>
</g>
</svg>
