<?xml version="1.0" encoding="utf-8"?>
<!-- Generator: Adobe Illustrator 22.0.1, SVG Export Plug-In . SVG Version: 6.00 Build 0)  -->
<svg version="1.1" id="Capa_1" xmlns="http://www.w3.org/2000/svg" xmlns:xlink="http://www.w3.org/1999/xlink" x="0px" y="0px"
	 viewBox="0 0 512 512" style="enable-background:new 0 0 512 512;" xml:space="preserve">
<style type="text/css">
	.st0{fill:#2A579C;}
</style>
<path class="st0" d="M497,302h-15V105c0-41.4-33.6-75-75-75H207.4C201.2,12.5,184.6,0,165,0c-24.8,0-45,20.2-45,45v45h-15
	c-41.4,0-75,33.6-75,75v49.6C12.5,220.8,0,237.4,0,257s12.5,36.2,30,42.4V377c0,33.5,22.1,61.9,52.5,71.5L65.7,482H15
	c-8.3,0-15,6.7-15,15s6.7,15,15,15h482c8.3,0,15-6.7,15-15c0-9.9,0-169.4,0-180C512,308.7,505.3,302,497,302z M482,332v30h-30v-30
	H482z M482,392v90H360v-90H482z M452,105v197h-15c-8.3,0-15,6.7-15,15v45h-77c-8.3,0-15,6.7-15,15v105h-65.7l-16.7-33.5
	c30.4-9.6,52.5-38,52.5-71.5v-77.6c17.5-6.2,30-22.9,30-42.4s-12.5-36.2-30-42.4V165c0-41.4-33.6-75-75-75h-15V60h197
	C431.8,60,452,80.2,452,105z M150,45c0-8.3,6.7-15,15-15s15,6.7,15,15v45h-30V45z M105,120h120c24.8,0,45,20.2,45,45v47H60v-47
	C60,140.2,80.2,120,105,120z M45,242h240c8.3,0,15,6.7,15,15s-6.7,15-15,15H45c-8.3,0-15-6.7-15-15S36.7,242,45,242z M60,377v-75
	h210v75c0,24.8-20.2,45-45,45H105C80.2,422,60,401.8,60,377z M114.3,452h101.5l15,30H99.3L114.3,452z"/>
</svg>
