<?xml version="1.0" encoding="utf-8"?>
<!-- Generator: Adobe Illustrator 22.0.1, SVG Export Plug-In . SVG Version: 6.00 Build 0)  -->
<svg version="1.1" id="Capa_1" xmlns="http://www.w3.org/2000/svg" xmlns:xlink="http://www.w3.org/1999/xlink" x="0px" y="0px"
	 viewBox="0 0 512 512" style="enable-background:new 0 0 512 512;" xml:space="preserve">
<style type="text/css">
	.st0{fill:#2A579C;}
</style>
<path class="st0" d="M512,239.9c0-74.7-60.8-135.5-135.5-135.5H214.8V70.2h1.1c8.3,0,15-6.7,15-15s-6.7-15-15-15h-16.1h-64.3h-16.1
	c-8.3,0-15,6.7-15,15s6.7,15,15,15h1.1v35.1C52.8,112.8,0,170.3,0,239.9C0,300.3,39.7,351.6,94.3,369c-8.7,10.8-14,24.6-14,39.6
	c0,34.8,28.4,63.2,63.2,63.2c23.6,0,44.1-13,55-32.1h114.9c10.9,19.2,31.4,32.1,55,32.1c34.8,0,63.2-28.4,63.2-63.2
	c0-15-5.3-28.8-14-39.6C472.3,351.6,512,300.3,512,239.9z M361.5,168.7h-34.3v-34.3h34.3V168.7z M327.2,198.7h34.3V233h-34.3V198.7z
	 M184.8,70.2v34.3h-34.3V70.2H184.8z M143.5,441.8c-18.3,0-33.2-14.9-33.2-33.2c0-18.3,14.9-33.2,33.2-33.2s33.2,14.9,33.2,33.2
	C176.7,426.9,161.8,441.8,143.5,441.8z M206.7,409.7c0-0.4,0-0.7,0-1.1c0-12.2-3.5-23.5-9.5-33.2h117.4c-6,9.7-9.5,21-9.5,33.2
	c0,0.4,0,0.7,0,1.1H206.7z M368.5,441.8c-18.3,0-33.2-14.9-33.2-33.2c0-18.3,14.9-33.2,33.2-33.2c18.3,0,33.2,14.9,33.2,33.2
	C401.7,426.9,386.8,441.8,368.5,441.8z M376.5,345.4h-241c-53.1,0-97.1-39.4-104.4-90.5H248c8.3,0,15-6.7,15-15s-6.7-15-15-15H31.1
	c7.3-51.1,51.3-90.5,104.4-90.5h64.3h97.5v145.7c0,8.3,6.7,15,15,15s15-6.7,15-15V263h34.3v17.1c0,8.3,6.7,15,15,15s15-6.7,15-15
	V135.5c51.1,7.3,90.5,51.3,90.5,104.4C482,298.1,434.7,345.4,376.5,345.4z"/>
</svg>
