<?xml version="1.0" encoding="utf-8"?>
<!-- Generator: Adobe Illustrator 22.0.1, SVG Export Plug-In . SVG Version: 6.00 Build 0)  -->
<svg version="1.1" id="Capa_1" xmlns="http://www.w3.org/2000/svg" xmlns:xlink="http://www.w3.org/1999/xlink" x="0px" y="0px"
	 viewBox="0 0 512 512" style="enable-background:new 0 0 512 512;" xml:space="preserve">
<style type="text/css">
	.st0{fill:#2A579C;}
</style>
<g>
	<path class="st0" d="M476,422h-5v-61.9c19.6-31.5,30-67.1,30-103.1c0-93.7-69.3-176.4-170-204.7V15c0-8.3-6.7-15-15-15H196
		c-8.3,0-15,6.7-15,15v37.3C80.3,80.6,11,163.3,11,257c0,36,10.4,71.6,30,103.1V422h-5c-8.3,0-15,6.7-15,15s6.7,15,15,15h25v25
		c0,19.3,15.7,35,35,35h40c19.3,0,35-15.7,35-35v-25h170v25c0,19.3,15.7,35,35,35h40c19.3,0,35-15.7,35-35v-25h25
		c8.3,0,15-6.7,15-15S484.3,422,476,422z M71,422v-30h30v30H71z M71,362v-25c0-2.8,2.2-5,5-5h25v30H71z M141,477c0,2.8-2.2,5-5,5H96
		c-2.8,0-5-2.2-5-5v-25h50V477z M296,422h-80v-40h80V422z M326,422v-55c0-8.3-6.7-15-15-15H201c-8.3,0-15,6.7-15,15v55h-55v-90h250
		v90H326z M381,297v5H131v-5C214,263.9,298,263.9,381,297z M181,250.3V192h150v58.3C281.1,239.4,230.9,239.4,181,250.3L181,250.3z
		 M421,477c0,2.8-2.2,5-5,5h-40c-2.8,0-5-2.2-5-5v-25h50V477z M441,422h-30v-30h30V422z M441,362h-30v-30h25c2.8,0,5,2.2,5,5V362z
		 M436,302h-25v-15c0-6-3.6-11.4-9.1-13.8c-13.6-5.8-27.3-10.8-40.9-15V192h15c8.3,0,15-6.7,15-15s-6.7-15-15-15H136
		c-8.3,0-15,6.7-15,15s6.7,15,15,15h15v66.2c-13.7,4.2-27.3,9.2-40.9,15c-5.5,2.4-9.1,7.8-9.1,13.8v15H76c-9.8,0-18.7,4-25,10.6
		c-6.6-17.9-10-36.7-10-55.6c0-83.2,65.1-156.6,158.4-178.5c6.8-1.6,11.6-7.6,11.6-14.6V30h90v33.9c0,7,4.8,13,11.6,14.6
		C405.9,100.4,471,173.8,471,257c0,18.9-3.4,37.6-10,55.6C454.7,306.1,445.8,302,436,302z"/>
</g>
</svg>
