<?xml version="1.0" encoding="utf-8"?>
<!-- Generator: Adobe Illustrator 22.0.1, SVG Export Plug-In . SVG Version: 6.00 Build 0)  -->
<svg version="1.1" id="Capa_1" xmlns="http://www.w3.org/2000/svg" xmlns:xlink="http://www.w3.org/1999/xlink" x="0px" y="0px"
	 viewBox="0 0 512 512" style="enable-background:new 0 0 512 512;" xml:space="preserve">
<style type="text/css">
	.st0{fill:#2A579C;}
</style>
<g>
	<path class="st0" d="M467,62h-65.9c-1.6-4.6-5.5-8.3-10.5-9.6L362,45.3V15c0-8.3-6.7-15-15-15h-60c-8.3,0-15,6.7-15,15v30.3
		l-28.6,7.2c-5,1.2-8.9,4.9-10.5,9.6H167c-24.8,0-45,20.2-45,45v360c0,24.8,20.2,45,45,45h300c24.8,0,45-20.2,45-45V107
		C512,82.2,491.8,62,467,62z M422,352h-55c-8.3,0-15,6.7-15,15v55H212V92h20v25c0,8.3,6.7,15,15,15h140c8.3,0,15-6.7,15-15V92h20
		V352z M400.8,382L382,400.8V382H400.8z M290.6,71.6c6.7-1.7,11.4-7.7,11.4-14.6V30h30v27c0,6.9,4.7,12.9,11.4,14.6l28.6,7.2V102
		H262V78.7L290.6,71.6z M482,467c0,8.3-6.7,15-15,15H167c-8.3,0-15-6.7-15-15V107c0-8.3,6.7-15,15-15h15v345c0,8.3,6.7,15,15,15h170
		c4,0,7.8-1.6,10.6-4.4l70-70c2.8-2.8,4.4-6.6,4.4-10.6V92h15c8.3,0,15,6.7,15,15V467z"/>
	<path class="st0" d="M377,162H257c-8.3,0-15,6.7-15,15v120c0,8.3,6.7,15,15,15h120c8.3,0,15-6.7,15-15V177
		C392,168.7,385.3,162,377,162z M362,282h-90v-90h30v15c0,8.3,6.7,15,15,15s15-6.7,15-15v-15h30V282z"/>
	<path class="st0" d="M317,352h-60c-8.3,0-15,6.7-15,15s6.7,15,15,15h60c8.3,0,15-6.7,15-15S325.3,352,317,352z"/>
	<path class="st0" d="M75,92H60V77c0-8.3-6.7-15-15-15s-15,6.7-15,15v15H15c-8.3,0-15,6.7-15,15v300c0,2,0.4,4,1.2,5.9L30,480.1V497
		c0,8.3,6.7,15,15,15s15-6.7,15-15v-16.9l28.8-67.2C89.6,411,90,409,90,407V107C90,98.7,83.3,92,75,92z M45,438.9L37.7,422h14.5
		L45,438.9z M60,392H30V202h30V392z M60,172H30v-50h30V172z"/>
</g>
</svg>
