<?xml version="1.0" encoding="utf-8"?>
<!-- Generator: Adobe Illustrator 22.0.1, SVG Export Plug-In . SVG Version: 6.00 Build 0)  -->
<svg version="1.1" id="Capa_1" xmlns="http://www.w3.org/2000/svg" xmlns:xlink="http://www.w3.org/1999/xlink" x="0px" y="0px"
	 viewBox="0 0 512 512" style="enable-background:new 0 0 512 512;" xml:space="preserve">
<style type="text/css">
	.st0{fill:#2A579C;}
</style>
<g>
	<g>
		<circle class="st0" cx="166" cy="316" r="15"/>
	</g>
</g>
<g>
	<g>
		<circle class="st0" cx="346" cy="316" r="15"/>
	</g>
</g>
<g>
	<g>
		<path class="st0" d="M256,0C115,0,0,115,0,256c0,141,115,256,256,256c141,0,256-115,256-256C512,115,397,0,256,0z M256,482
			C131.4,482,30,380.6,30,256S131.4,30,256,30s226,101.4,226,226S380.6,482,256,482z"/>
	</g>
</g>
<g>
	<g>
		<path class="st0" d="M256,61C148.4,61,61,148.5,61,256c0,55.3,23.7,108.2,65,145.2c6.2,5.5,15.7,5,21.2-1.2
			c5.5-6.2,5-15.7-1.2-21.2c-31.2-28-50.5-66.6-54.3-107.9H106c8.3,0,15-6.7,15-15s-6.7-15-15-15H91.7c3.1-34.3,16.7-65.5,37.6-90.5
			l10.1,10.1c5.9,5.9,15.4,5.9,21.2,0s5.9-15.4,0-21.2l-10.1-10.1c25-20.9,56.3-34.5,90.5-37.6V106c0,8.3,6.7,15,15,15s15-6.7,15-15
			V91.7c34.3,3.1,65.5,16.7,90.5,37.6l-10.1,10.1c-5.9,5.9-5.9,15.4,0,21.2c5.9,5.9,15.4,5.9,21.2,0l10.1-10.1
			c20.9,25,34.5,56.3,37.6,90.5H406c-8.3,0-15,6.7-15,15s6.7,14.9,15,14.9h14.3c-3.8,41.2-23.1,80-54.3,108
			c-6.2,5.5-6.7,15-1.2,21.2c5.5,6.2,15,6.7,21.2,1.2c41.3-37,65-89.9,65-145.2C451,148.6,363.6,61,256,61z"/>
	</g>
</g>
<g>
	<g>
		<path class="st0" d="M271,213.6V166c0-8.3-6.7-15-15-15s-15,6.7-15,15v47.6c-17.5,6.2-30,22.9-30,42.4c0,24.8,20.2,45,45,45
			s45-20.2,45-45C301,236.4,288.5,219.8,271,213.6z M256,271c-8.3,0-15-6.7-15-15s6.7-15,15-15s15,6.7,15,15S264.3,271,256,271z"/>
	</g>
</g>
<g>
	<g>
		<path class="st0" d="M316,331H196c-8.3,0-15,6.7-15,15v60c0,8.3,6.7,15,15,15h120c8.3,0,15-6.7,15-15v-60
			C331,337.7,324.3,331,316,331z M301,391h-90v-30h90V391z"/>
	</g>
</g>
</svg>
