<?xml version="1.0" encoding="utf-8"?>
<!-- Generator: Adobe Illustrator 22.0.1, SVG Export Plug-In . SVG Version: 6.00 Build 0)  -->
<svg version="1.1" id="Capa_1" xmlns="http://www.w3.org/2000/svg" xmlns:xlink="http://www.w3.org/1999/xlink" x="0px" y="0px"
	 viewBox="0 0 512 512" style="enable-background:new 0 0 512 512;" xml:space="preserve">
<style type="text/css">
	.st0{fill:#2A579C;}
</style>
<g>
	<path class="st0" d="M497,13.7H15c-8.3,0-15,6.7-15,15v377.8c0,8.3,6.7,15,15,15h182.6v46.9h-4.3c-8.3,0-15,6.7-15,15s6.7,15,15,15
		h125.4c8.3,0,15-6.7,15-15s-6.7-15-15-15h-4.3v-46.9H497c8.3,0,15-6.7,15-15V28.7C512,20.4,505.3,13.7,497,13.7z M30,43.7h452
		v269.7H30V43.7z M284.4,468.3h-56.8v-46.9h56.8L284.4,468.3L284.4,468.3z M482,391.5H30v-48.1h452V391.5z"/>
	<path class="st0" d="M393.6,86.6H133c-8.3,0-15,6.7-15,15s6.7,15,15,15h260.6c8.3,0,15-6.7,15-15S401.9,86.6,393.6,86.6z"/>
	<path class="st0" d="M393.6,240.5H296c-8.3,0-15,6.7-15,15c0,8.3,6.7,15,15,15h97.6c8.3,0,15-6.7,15-15S401.9,240.5,393.6,240.5
		L393.6,240.5z"/>
	<path class="st0" d="M393.6,168.1H296c-8.3,0-15,6.7-15,15s6.7,15,15,15h97.6c8.3,0,15-6.7,15-15S401.9,168.1,393.6,168.1z"/>
	<path class="st0" d="M236,168.1H133c-8.3,0-15,6.7-15,15v72.4c0,8.3,6.7,15,15,15h103c8.3,0,15-6.7,15-15v-72.4
		C251,174.9,244.3,168.1,236,168.1L236,168.1z M221,240.5h-73v-42.4h73V240.5z"/>
</g>
</svg>
