<?xml version="1.0" encoding="utf-8"?>
<!-- Generator: Adobe Illustrator 22.0.1, SVG Export Plug-In . SVG Version: 6.00 Build 0)  -->
<svg version="1.1" id="Capa_1" xmlns="http://www.w3.org/2000/svg" xmlns:xlink="http://www.w3.org/1999/xlink" x="0px" y="0px"
	 viewBox="0 0 512 512" style="enable-background:new 0 0 512 512;" xml:space="preserve">
<style type="text/css">
	.st0{fill:#2A579C;}
</style>
<g>
	<path class="st0" d="M381.6,312l-35.1-7.3c38.9-44.7,27.4-92.4,29.4-108.7h5c8.3,0,15-6.7,15-15v-50c0-7.2-5.1-13.4-12.2-14.7
		l-13.4-2.6c-10.8-34-36.3-61.6-69.4-74.9V15c0-8.3-6.7-15-15-15h-60c-8.3,0-15,6.7-15,15v23.7c-33.1,13.4-58.6,40.9-69.4,75
		l-13.4,2.6c-7.1,1.4-12.2,7.5-12.2,14.7v50c0,8.3,6.7,15,15,15h5c2.1,16.2-9.4,64,29.4,108.6l-35.1,7.4C72.7,324.1,31,375,31,434.3
		V497c0,8.3,6.7,15,15,15h420c8.3,0,15-6.7,15-15v-62.7C481,375.4,439.7,324.2,381.6,312z M317.2,329.2l43.8,9.2V391H151v-52.7
		l43.8-9.2C231.9,351.3,279,352,317.2,329.2L317.2,329.2z M151,421h210v61H151V421z M241,30h30v46h-30V30z M146,143.4l10.4-2
		c5.9-1.1,10.5-5.6,11.8-11.4c5.6-24.7,21.3-45.6,42.8-58v19c0,8.3,6.7,15,15,15h60c8.3,0,15-6.7,15-15V72
		c21.4,12.4,37.2,33.3,42.8,57.9c1.3,5.8,5.9,10.3,11.8,11.4l10.5,2V166H146V143.4z M346,196v30c0,49.6-40.4,90-90,90
		s-90-40.4-90-90v-30H346z M61,434.3c0-39.2,24.5-74.1,60-88.3v136H61V434.3z M451,482h-60c0-50.3,0-85.6,0-136
		c35.5,14.2,60,49.1,60,88.3V482z"/>
</g>
</svg>
