<?xml version="1.0" encoding="utf-8"?>
<!-- Generator: Adobe Illustrator 22.0.1, SVG Export Plug-In . SVG Version: 6.00 Build 0)  -->
<svg version="1.1" id="Camada_1" xmlns="http://www.w3.org/2000/svg" xmlns:xlink="http://www.w3.org/1999/xlink" x="0px" y="0px"
	 viewBox="0 0 915.1 142.3" style="enable-background:new 0 0 915.1 142.3;" xml:space="preserve">
<style type="text/css">
	.st0{fill:url(#SVGID_1_);}
	.st1{fill:url(#SVGID_2_);}
	.st2{fill:url(#SVGID_3_);}
	.st3{fill:url(#SVGID_4_);}
	.st4{fill:url(#SVGID_5_);}
	.st5{fill:url(#SVGID_6_);}
	.st6{fill:url(#SVGID_7_);}
	.st7{fill:url(#SVGID_8_);}
	.st8{fill:url(#SVGID_9_);}
	.st9{fill:url(#SVGID_10_);}
	.st10{fill:#2A589C;}
	.st11{fill:#E80000;}
</style>
<linearGradient id="SVGID_1_" gradientUnits="userSpaceOnUse" x1="36.9251" y1="112.9871" x2="36.9251" y2="1.3554">
	<stop  offset="0" style="stop-color:#00ABC5"/>
	<stop  offset="0.4388" style="stop-color:#00929E"/>
	<stop  offset="1" style="stop-color:#007B8D"/>
</linearGradient>
<path class="st0" d="M58.7,113c0.8-8.5-2.7-17.8-9.8-25.9c-0.2-0.2-0.3-0.4-0.5-0.6c-2.9-3.2-6.4-6.3-11-9.7
	c-2.5-1.9-5.2-3.8-7.8-5.6c-1.8-1.3-3.7-2.6-5.5-3.9C16.5,61.9,8.1,54.9,3.7,45.3c-3.6-8-4-17.2-1.1-25.5
	c2.7-7.8,8.3-14.4,15.5-18.5c-0.2,1.1-0.2,2.3-0.1,3.5l-0.2-0.1l0.4,1.5c0.2,0.9,0.5,1.9,0.8,2.8c1.4,3.7,4.3,7.7,8.5,11.7
	c4.6,4.3,10.9,9.2,16.5,13.4c1.6,1.2,3,2.3,4.4,3.4c7.2,5.6,12.6,9.9,16.6,14.9c4.4,5.4,6.9,11.3,7.7,18.5c0,0,0,0.2,0,0.3
	c0.5,5,0.3,10.2-0.7,15.3C70.3,96.5,65.5,105.8,58.7,113z"/>
<linearGradient id="SVGID_2_" gradientUnits="userSpaceOnUse" x1="-2.658186e-05" y1="43.7846" x2="73.8567" y2="43.7846">
	<stop  offset="9.502776e-02" style="stop-color:#00517B"/>
	<stop  offset="0.1513" style="stop-color:#045B86"/>
	<stop  offset="0.3774" style="stop-color:#137DAD"/>
	<stop  offset="0.5849" style="stop-color:#1E96CA"/>
	<stop  offset="0.7654" style="stop-color:#25A5DB"/>
	<stop  offset="0.8986" style="stop-color:#27AAE1"/>
</linearGradient>
<path class="st1" d="M59.2,75.4c-24.9-24-36.4-56.9-39.4-66.5c-0.3-0.9-0.6-1.8-0.8-2.7c0,0,0,0,0,0s0,0,0,0c-0.4-2-0.4-4,0.2-6.1
	c0,0-26.1,28.3,17.8,77.4c0,0,0,0,0,0c3.9,2.9,7.6,6,10.9,9.6c0.2,0.2,0.3,0.4,0.5,0.6C50.1,81.9,54.1,78,59.2,75.4z"/>
<linearGradient id="SVGID_3_" gradientUnits="userSpaceOnUse" x1="19.7244" y1="42.0971" x2="73.5263" y2="42.0971">
	<stop  offset="0" style="stop-color:#00517B"/>
	<stop  offset="1" style="stop-color:#27AAE1"/>
</linearGradient>
<path class="st2" d="M48.9,37c-6.2-4.8-15-11.2-20.8-16.7c-3.4-3.2-6.7-7.2-8.4-11.4c3,9.7,14.6,42.5,39.4,66.5
	c4.3-2.3,9.3-3.7,14.4-4.5C71.7,55,62.6,47.6,48.9,37z"/>
<linearGradient id="SVGID_4_" gradientUnits="userSpaceOnUse" x1="7.4319" y1="50.5571" x2="27.0149" y2="39.2509">
	<stop  offset="0" style="stop-color:#00517B"/>
	<stop  offset="1" style="stop-color:#27AAE1"/>
</linearGradient>
<path class="st3" d="M19.1,0C11.2,4,4.9,11.2,1.9,19.6C-1,28-0.6,37.5,3.1,45.6C7.3,55,15.4,62,23.7,68c4.4,3.2,8.9,6.2,13.2,9.4
	c0,0,0,0,0,0C-7,28.3,19.1,0,19.1,0z"/>
<linearGradient id="SVGID_5_" gradientUnits="userSpaceOnUse" x1="60.598" y1="99.8484" x2="60.598" y2="60.2031">
	<stop  offset="0" style="stop-color:#27AAE1"/>
	<stop  offset="1" style="stop-color:#00517B"/>
</linearGradient>
<path class="st4" d="M57.7,115c7.9-7.6,13.2-17.7,15.2-28.4c-5-3.4-9.5-7.2-13.7-11.2c-5,2.7-9.1,6.6-10.9,12.2
	C55,95.1,59.5,105.2,57.7,115z"/>
<linearGradient id="SVGID_6_" gradientUnits="userSpaceOnUse" x1="66.5053" y1="86.6085" x2="66.5053" y2="70.8566">
	<stop  offset="0" style="stop-color:#27AAE1"/>
	<stop  offset="1" style="stop-color:#00517B"/>
</linearGradient>
<path class="st5" d="M72.9,86.6c1-5.1,1.2-10.3,0.7-15.5c0-0.1,0-0.2,0-0.3c-5,0.8-10.1,2.2-14.4,4.5C63.3,79.4,67.9,83.2,72.9,86.6
	z"/>
<linearGradient id="SVGID_7_" gradientUnits="userSpaceOnUse" x1="-2.8403" y1="68.9985" x2="16.0144" y2="68.9985">
	<stop  offset="0" style="stop-color:#F6987F"/>
	<stop  offset="0.6071" style="stop-color:#ED1C24"/>
	<stop  offset="1" style="stop-color:#B11116"/>
</linearGradient>
<path class="st6" d="M35.7,81.4C25.6,74,16.1,69.5,5.5,56.5C3.7,62.4,2.8,68.7,3,75C10.4,73.1,22.7,72.2,35.7,81.4z"/>
<linearGradient id="SVGID_8_" gradientUnits="userSpaceOnUse" x1="17.9957" y1="108.0491" x2="53.4142" y2="108.0491">
	<stop  offset="0" style="stop-color:#B11116"/>
	<stop  offset="0.3929" style="stop-color:#ED1C24"/>
	<stop  offset="0.9035" style="stop-color:#F6987F"/>
</linearGradient>
<path class="st7" d="M39.9,138.3c-0.1,1.4-0.5,2.8-1.2,4.1c5.4-6.6,10.4-13.9,12.8-22.2c2.4-8.2,2.1-17.6-2.5-24.9
	c-1.1-1.8-2.5-3.6-4-5.3c-0.8-0.9-1.6-1.7-2.4-2.5c-0.1-0.1-0.2-0.2-0.3-0.3c0,0,0,0,0,0c-2-1.9-4.1-3.7-6.1-5.3
	c-0.2-0.1-0.4-0.3-0.6-0.4C22.7,72.2,10.4,73.1,3,75c0,0,0,0,0,0C40.9,106,41.6,129.3,39.9,138.3z"/>
<linearGradient id="SVGID_9_" gradientUnits="userSpaceOnUse" x1="3.0485" y1="106.6193" x2="40.3925" y2="106.6193">
	<stop  offset="0" style="stop-color:#B11116"/>
	<stop  offset="0.3929" style="stop-color:#ED1C24"/>
	<stop  offset="1" style="stop-color:#F6987F"/>
</linearGradient>
<path class="st8" d="M3,75L3,75c0,0,16.7,14.5,28.5,42c0,0,0,0,0,0c3.1,3,5.6,6.7,6.8,10.8c1,3.4,2,7,1.6,10.5
	C41.6,129.3,40.9,106,3,75z"/>
<linearGradient id="SVGID_10_" gradientUnits="userSpaceOnUse" x1="17.2963" y1="116.9854" x2="17.2963" y2="74.9543">
	<stop  offset="0" style="stop-color:#CE181E"/>
	<stop  offset="0.6517" style="stop-color:#CE181E"/>
	<stop  offset="0.9991" style="stop-color:#E79093"/>
</linearGradient>
<path class="st9" d="M3,75c0.4,10.8,4.2,21.3,11.8,28.8c3.6,3.5,11.4,8.6,15.2,11.9c0.5,0.4,1,0.9,1.5,1.3c0,0,0,0,0,0
	C19.7,89.4,3,75,3,75z"/>
<g>
	<path class="st10" d="M130.7,17.7l23.3,52.7H144l-4.4-9.7h-28.1l-4.3,9.7h-9.9l23.3-52.7H130.7z M115.1,52.2h21l-10.1-25H125
		L115.1,52.2z"/>
	<path class="st10" d="M160.7,70.4V17.7h27.2c4.6,0,9,1.6,11.9,4.6c2.3,2.4,3.6,5.4,3.6,9.3c0,2-0.4,3.9-1.3,5.7
		c-0.8,1.3-1.9,2.5-3.6,3.6v0.4c2.2,1,3.9,2.5,5.3,4.2c1.8,2.5,2.6,5.4,2.6,8.7c0,4.6-1.8,8.5-4.8,11.3c-3.2,3.1-7.6,4.8-12.6,4.8
		H160.7z M192.4,27.6c-1.2-1.1-3-1.8-5.1-1.8H170v12.2h18.8c1.6,0,3.1-0.8,3.9-1.8c1.1-1.2,1.5-2.7,1.5-4.2
		C194.2,30.2,193.6,28.7,192.4,27.6z M195.6,49c-1.5-1.7-3.9-2.7-6.1-2.7H170v16h19c2.4,0,4.6-1.1,6.2-2.5c1.2-1.3,2-3.3,2-5.5
		C197.3,52.1,196.7,50.2,195.6,49z"/>
	<path class="st10" d="M209.4,17.7h48.4v8.4h-19.6v44.2H229V26.1h-19.6V17.7z"/>
	<path class="st10" d="M306.7,24.5c5,5.1,7.8,12,7.8,19.6s-2.7,14.2-7.5,19.1c-5,5.1-11.9,8.2-20.3,8.2c-8.3,0-15.7-3.6-20.5-8.8
		c-4.4-4.7-7.3-11.5-7.3-18.5c0-7.3,2.7-14,7.4-18.9c4.9-5.2,12.1-8.4,20.5-8.4C295,16.7,301.9,19.6,306.7,24.5z M273.4,57.1
		c3.2,3.6,8.1,5.8,13.4,5.8c5.3,0,10.1-2.1,13.4-5.7c3-3.2,4.9-7.8,4.9-13.2c0-5.4-2-10.1-5-13.3c-3.4-3.5-8.3-5.6-13.3-5.6
		c-5.2,0-10.1,2.1-13.4,5.7c-3.1,3.2-5,7.8-5,13.2C268.4,49.3,270.3,53.9,273.4,57.1z"/>
	<path class="st10" d="M330.9,70.4h-9.4V17.7h40v8.4h-30.6V70.4z"/>
	<path class="st10" d="M391.5,17.7l23.3,52.7h-10.1l-4.4-9.7h-28.1l-4.3,9.7h-9.9l23.3-52.7H391.5z M375.9,52.2h21l-10.1-25h-1.1
		L375.9,52.2z"/>
	<path class="st10" d="M454.4,59.7c2.3-1.7,3.2-3.9,3.2-6.7c0-2.1-0.8-3.9-2.1-5.1c-1.4-1.3-3.5-2-6-2h-19.3v-8.3H448
		c2.1,0,3.7-0.6,4.7-1.7c1-1.1,1.5-2.5,1.5-4.3c0-1.8-1-3.3-2.3-4.3c-2.8-1.8-7.4-2.3-10.3-2.3c-4.8,0-9.9,1-15.7,4.1l-3.7-6.9
		c6.1-3.7,12-5.4,19.9-5.4c5.1,0,11.8,1,16.1,4.2c3.1,2.3,5.3,5.7,5.3,10.4c0,2.2-0.4,4-1.3,5.6c-0.8,1.4-1.8,2.5-3.2,3.4v0.4
		c2.3,1.3,4.4,3,5.7,4.7c1.4,2,2.2,4.5,2.2,7.5c0,5-2,9.8-6.3,13.3c-3.9,3.1-9.7,5.1-18.2,5.1c-8.9,0-16-1.6-22.6-6.1l3.9-7.5
		c6.7,3.8,11.6,5,18.6,5C447.8,62.7,451.8,61.7,454.4,59.7z"/>
	<path class="st10" d="M483.7,17.7v20.5h7.5c1.3,0,2.5-0.3,3.5-0.8c0.9-0.4,1.6-1.3,2.2-2.2l6.1-10.7c1.3-2.4,2.8-4.1,4.8-5.4
		s4.6-2,7.8-2c2,0,3.3,0.1,5.4,0.6l-1,8h-2.3c-1.9,0-3.4,0.2-4.6,0.9c-0.9,0.5-1.7,1.2-2.3,2.4l-5.9,10c-0.5,1-1.4,2.3-2.3,3.2
		l18.5,28.2h-11.1l-15.3-24.1c-1.2,0.3-2.3,0.4-3.3,0.4h-8v23.8h-9.3V17.7H483.7z"/>
	<path class="st10" d="M569.8,24.5c5,5.1,7.8,12,7.8,19.6s-2.7,14.2-7.5,19.1c-5,5.1-11.9,8.2-20.3,8.2s-15.7-3.6-20.5-8.8
		c-4.4-4.7-7.3-11.5-7.3-18.5c0-7.3,2.7-14,7.4-18.9c4.9-5.2,12.1-8.4,20.5-8.4C558.1,16.7,565,19.6,569.8,24.5z M536.5,57.1
		c3.2,3.6,8.1,5.8,13.4,5.8c5.3,0,10.1-2.1,13.4-5.7c3-3.2,4.9-7.8,4.9-13.2c0-5.4-2-10.1-5-13.3c-3.4-3.5-8.3-5.6-13.3-5.6
		c-5.2,0-10.1,2.1-13.4,5.7c-3.1,3.2-5,7.8-5,13.2C531.5,49.3,533.4,53.9,536.5,57.1z"/>
	<path class="st10" d="M594.9,17.7l18.6,26.1l18.2-26.1h10.1v52.7h-9.3V31.7h-0.4l-17.3,24.5h-3.4L594,31.7h-0.4v38.6h-8.9V17.7
		H594.9z"/>
	<path class="st10" d="M696.2,17.7v52.7h-9.4V26.1h-26.9v44.2h-9.4V17.7H696.2z"/>
	<path class="st10" d="M757.2,17.7v52.7H748V26.1h-20l-4.6,32.6c-0.5,3.9-2,7-4,9c-2.2,1.9-5.4,3-9.2,3c-3.1,0-5.2-0.3-8.3-1.4
		l1.8-7.7c2.2,0.5,3.5,0.6,4.9,0.6c1.6,0,3.2-0.4,4.1-1.4c1.1-1.1,1.7-2.7,1.9-4.5l5.3-38.6H757.2z"/>
	<path class="st10" d="M766.1,17.7H807v8.6h-31.4v12.2h28.1V47h-28.1v14.8h32.7v8.5h-42.1V17.7z"/>
	<path class="st10" d="M825.3,17.7v20.5h7.5c1.3,0,2.5-0.3,3.5-0.8c0.9-0.4,1.6-1.3,2.2-2.2l6.1-10.7c1.3-2.4,2.8-4.1,4.8-5.4
		s4.6-2,7.8-2c2,0,3.3,0.1,5.4,0.6l-1,8h-2.3c-1.9,0-3.4,0.2-4.6,0.9c-0.9,0.5-1.7,1.2-2.3,2.4l-5.9,10c-0.5,1-1.4,2.3-2.3,3.2
		L863,70.4h-11.1l-15.3-24.1c-1.2,0.3-2.3,0.4-3.3,0.4h-8v23.8H816V17.7H825.3z"/>
	<path class="st10" d="M866.7,17.7h48.4v8.4h-19.6v44.2h-9.2V26.1h-19.6V17.7z"/>
</g>
<g>
	<path class="st11" d="M102.9,96.1v11.7h4.3c0.8,0,1.5-0.2,2-0.5c0.5-0.3,0.9-0.8,1.3-1.3l3.5-6.1c0.8-1.4,1.6-2.4,2.8-3.1
		s2.6-1.2,4.5-1.2c1.2,0,1.9,0.1,3.1,0.4l-0.6,4.6h-1.3c-1.1,0-2,0.1-2.6,0.5c-0.5,0.3-1,0.7-1.3,1.4l-3.4,5.7
		c-0.3,0.6-0.8,1.3-1.3,1.9l10.6,16.1h-6.3l-8.7-13.8c-0.7,0.2-1.3,0.2-1.9,0.2h-4.6v13.6h-5.3V96.1H102.9z"/>
	<path class="st11" d="M166.1,114.9c-2.1,2-5,3.2-8.1,3.2h-9.1v8.2h-5.5V96.1H158c3.5,0,6.7,1.5,8.8,4c1.6,1.9,2.5,4.2,2.5,7
		C169.4,110.2,168.1,113,166.1,114.9z M162.5,111.3c0.8-1.2,1.5-2.8,1.5-4.1c0-1.6-0.5-3.1-1.5-4.1c-1.1-1.3-2.7-2-4.6-2h-8.9v12.2
		h9.3C159.9,113.2,161.5,112.4,162.5,111.3z"/>
	<path class="st11" d="M210.9,123c-2.1,2.1-5,3.2-8.1,3.2h-14.4V96.1h5.4v8.1h9c3.3,0,6.2,1.4,8.3,3.5c1.8,1.9,2.9,4.5,2.9,7.4
		C214.1,118.4,212.9,121,210.9,123z M207.1,111c-1.1-1.1-2.6-2-4.5-2h-8.8v12.4h9.1c1.7,0,3.1-0.7,4.1-1.7c1.2-1.1,1.8-2.8,1.8-4.6
		C208.7,113.6,208.2,112.1,207.1,111z M222.4,126.2H217V96.1h5.3V126.2z"/>
	<path class="st11" d="M248.3,96.1L259,111l10.4-14.9h5.8v30.1h-5.3v-22.1h-0.2l-9.9,14h-2l-10-14h-0.2v22.1h-5.1V96.1H248.3z"/>
</g>
</svg>
